<svg xmlns="http://www.w3.org/2000/svg" width="2428" height="1180" fill="currentColor"><path fill="currentColor" fill-rule="evenodd" d="m660.632 206.095-14.202 74.797s85.212 56.807 131.591 159.048c54.914 123.07 64.382 243.313 64.382 243.313l21.777-61.529s-5.681-101.32-53.008-216.815c-61.541-149.581-150.54-198.814-150.54-198.814Z" clip-rule="evenodd"/><path fill="currentColor" fill-rule="evenodd" d="m637.909 326.338-12.308 64.369s77.637 45.446 130.657 160.941c45.433 102.241 56.795 213.016 56.795 213.016l19.882-53.021s-11.361-107.934-58.701-213.015c-59.635-132.525-136.325-172.29-136.325-172.29ZM763.832 262.902s36.925-109.814 126.858-107.934c89.945 1.894 125.91 78.584 210.17 71.01 121.19-11.362 204.5-167.57 204.5-167.57L1293.05.654s-74.78 137.272-193.13 142.006c-79.52 2.84-106.99-61.542-190.294-67.222-113.603-7.575-155.261 121.176-155.261 121.176l9.467 66.288Zm109.815 278.345s48.287-96.56 135.383-95.626c79.51.946 121.17 78.583 205.44 71.956 98.45-7.575 159.05-146.74 159.05-146.74l-11.38-51.127s-52.06 118.349-151.46 122.136c-78.58 2.841-103.2-62.488-186.51-68.156-95.622-7.574-146.735 91.839-146.735 91.839l-3.788 75.718ZM249.75 823.365l-1.894 58.688c-2.84-.934-51.114-1.88-82.371-1.88-4.734 62.462-7.574 157.157-8.521 207.307H71.753c6.627-63.43 11.361-127.803 11.361-207.307-26.51 0-53.967.933-82.37 1.88l2.84-58.688H249.75Z" clip-rule="evenodd"/><path fill="currentColor" fill-rule="evenodd" d="M269.633 961.597c1.893-17.043 14.201-35.032 35.965-35.032 19.882 0 29.35 11.349 29.35 35.032h-65.315Zm136.338 36.912c2.84-10.415 2.84-19.883 2.84-30.298 0-55.86-35.965-87.092-102.241-87.092-106.987 0-115.495 90.892-115.495 111.709 0 79.522 55.86 99.402 120.242 99.402 23.67 0 47.327-2.84 70.05-7.58l9.468-56.79c-22.723 6.61-46.393 13.24-70.05 13.24-27.457 0-53.02-11.35-53.02-42.604h138.206v.013Zm189.345-50.18c-17.042-5.681-34.084-9.455-52.073-9.455-30.298 0-50.18 17.989-50.18 49.22 0 30.296 16.095 46.376 46.393 46.376 17.042 0 34.071-3.77 50.18-9.45l-10.415 59.63c-19.883 4.74-39.765 7.58-59.648 7.58-66.276 0-103.2-35.97-103.2-102.242 0-21.79 4.733-108.882 106.987-108.882 25.563 0 47.34 1.894 68.169 7.575l3.787 59.648Zm102.241-130.632c-1.894 15.149-5.681 67.21-7.574 95.626l.946.934c17.99-26.497 38.819-33.138 77.625-33.138 39.765 0 73.849 15.149 73.849 64.369 0 10.415-5.68 90.892-5.68 142.002h-79.531c2.84-35 5.681-71.01 5.681-106.037 0-18.922-5.681-37.845-29.351-37.845-19.882 0-34.084 14.189-39.765 33.137-6.628 21.764-8.521 67.205-10.415 110.745h-79.53c5.68-51.11 13.255-172.299 13.255-269.806h80.49v.013ZM949.391 874.479c-3.787 71.009-5.681 142.001-6.628 213.011h-84.264c9.468-84.25 13.255-161.884 13.255-269.806h142.956c18.93 0 96.57 1.894 96.57 71.944 0 42.605-24.62 65.328-63.44 78.583 16.1 40.709 35.98 78.589 53.01 119.279h-89.93c-14.202-51.11-33.138-101.303-52.074-151.457 6.627 1.881 13.255 1.881 19.882 1.881 23.672 0 51.112-8.508 51.112-35.965 0-27.457-26.49-27.457-45.431-27.457h-35.018v-.013Z" clip-rule="evenodd"/><path fill="currentColor" fill-rule="evenodd" d="M1175.66 961.597c1.89-17.043 14.2-35.032 35.97-35.032 18.95 0 28.39 11.349 28.39 35.032h-64.36ZM1312 998.509c1.88-10.415 2.84-19.883 2.84-30.298 0-55.86-35.97-87.092-102.25-87.092-107.94 0-116.46 90.892-116.46 111.709 0 79.522 55.86 99.402 120.24 99.402 23.66 0 47.34-2.84 70.07-7.58l10.41-56.79c-22.72 6.61-47.34 13.24-71.01 13.24-26.51 0-53.02-11.35-53.02-42.604H1312v.013Zm90.88-58.688c10.41-1.894 19.86-3.775 29.34-3.775 30.29 0 45.44 17.989 45.44 47.314 0 23.68-11.35 53.98-39.76 53.98-27.43 0-38.81-26.52-38.81-50.18-.01-16.108 1.9-31.257 3.79-47.339Zm-10.4 239.529c0-36.94 1.88-74.81 3.77-112.69 19.88 17.05 44.51 25.57 71.01 25.57 58.69 0 87.09-53.96 87.09-106.043 0-54.888-27.45-105.081-109.81-105.081-45.45 0-81.41 3.775-117.39 10.415 0 95.626-5.7 192.189-14.22 287.809h79.55v.02ZM1711.49 1061h-.93c-17.04 23.65-41.65 31.23-71.01 31.23-55.86 0-71.94-27.46-71.94-61.53 0-13.24 7.57-105.107 7.57-144.847h78.59c-1.9 35.966-7.58 71.944-7.58 106.975 0 19.882 6.62 35.962 29.34 35.962 19.88 0 31.23-16.08 35.96-34.068 4.74-22.723 5.7-69.129 6.64-108.882h78.59c-6.64 67.21-9.47 134.43-11.35 201.64h-73.86V1061h-.02Zm178.95-121.179c9.47-1.894 18.92-3.775 29.36-3.775 29.34 0 44.49 17.989 44.49 47.314 0 23.68-11.35 53.98-39.77 53.98-27.43 0-38.8-26.52-38.8-50.18-.02-16.108 1.88-31.257 4.72-47.339Zm-10.42 122.119h.94c16.11 20.85 36.93 30.3 63.43 30.3 64.4 0 96.56-54.89 96.56-113.614 0-63.435-36.91-97.507-99.4-97.507-7.57 0-16.08 0-23.66.934-8.53.96-16.08 1.894-23.68 3.8 1.9-28.39 2.87-48.286 5.7-68.169h-80.48c-.94 89.933-6.64 179.878-13.24 269.806h73.83v-25.55Zm262.24-244.243c-4.73 45.446-13.24 198.803-15.15 269.813h-80.45c8.51-89.935 12.28-179.88 15.15-269.813h80.45Zm4.73 269.793c6.64-61.52 9.47-121.159 10.42-201.637h81.41c-7.58 67.21-7.58 134.427-7.58 201.637h-84.25Zm12.32-227.187.94-47.34h78.58l-1.88 47.34h-77.64Zm267.93 88.026c-17.04-5.681-34.09-9.455-51.11-9.455-31.26 0-51.14 17.989-51.14 49.22 0 30.296 16.11 46.376 46.41 46.376 17.01 0 34.07-3.77 50.18-9.45l-10.44 59.63a250.99 250.99 0 0 1-59.64 7.58c-66.26 0-103.2-35.97-103.2-102.242 0-21.79 4.73-108.882 106.97-108.882 26.53 0 47.34 1.894 68.17 7.575l3.8 59.648Z" clip-rule="evenodd"/></svg>