<svg xmlns="http://www.w3.org/2000/svg" viewBox="0 0 57.81 85.3" fill="#231f20"><g id="Layer_2" data-name="Layer 2"><g id="Layer_1-2" data-name="Layer 1"><path d="M48.64 42.58a6.06 6.06 0 0 0-5.3 9 26.9 26.9 0 0 1-39.6-32.21 1 1 0 0 0-1.87-.71 28.88 28.88 0 0 0 42.74 34.5 6.06 6.06 0 1 0 4-10.58m2.87 8.93a4.06 4.06 0 0 1-5.75 0l-.09-.11a.81.81 0 0 0-.05-.12 1 1 0 0 0-.22-.21 4.05 4.05 0 1 1 6.11.45M49.34 8.47A28.85 28.85 0 0 0 13.2 4.66a6.13 6.13 0 1 0 1.24 1.58 26.9 26.9 0 0 1 39.63 32.2 1 1 0 0 0 .58 1.29 1 1 0 0 0 .35.06 1 1 0 0 0 .94-.65 29 29 0 0 0-6.6-30.68M12 12a4.06 4.06 0 1 1 0-5.7l.09.11a.86.86 0 0 0 .05.13.94.94 0 0 0 .22.21A4.06 4.06 0 0 1 12 12"/><path d="M20.22 31.56c-.8-.08-6.11-1.34-7.56-1.73A4.07 4.07 0 0 1 11 28.9a3.52 3.52 0 0 1-1.2-3.56A4.39 4.39 0 0 1 11.17 23c.34-.3.43-.3.78-.07a5.29 5.29 0 0 0-.9 2.16 2.64 2.64 0 0 0 1.28 3c.44.27 3.94 1.48 4.43 1.64a11.57 11.57 0 0 0 3.45.57h1.09c1 .09 2-.43 3.08-.23-.86 1.09-2 1.24-3.2 1.47ZM43.49 33.26a6.05 6.05 0 0 0-1.12-6.91c-.61.78-.61.78-1.11 1l.4-1.58a3.21 3.21 0 0 0-1.54-.6c-.52-.08-1-.1-1.57-.16s-.66-.18-.63-.42.35-.35.6-.39a6.12 6.12 0 0 1 2.64.12l.46.1a5.56 5.56 0 0 0-.08-.63 9.75 9.75 0 0 0-2.46-4.6c-.15-.16-.37-.28-.24-.55s.39-.24.71-.1a3.09 3.09 0 0 1 .57.34 4.45 4.45 0 0 1 1.35 1.61 10 10 0 0 1 1.12 4.06.75.75 0 0 0 .27.63 6.65 6.65 0 0 1 1.85 8 1.67 1.67 0 0 0 0 1.78 1.64 1.64 0 0 1 .07 1.36 4.25 4.25 0 0 1-2.44 2.78 9.55 9.55 0 0 1-1.55.53 2.19 2.19 0 0 0-1.68 1.86c0 .16-.07.31-.11.47s0 0-.08.09a1.33 1.33 0 0 1-.22-.31 2.3 2.3 0 0 1 1.13-2.79c.52-.27 1.08-.45 1.62-.68a3.49 3.49 0 0 0 2-2 1.29 1.29 0 0 0 0-1.05 3.63 3.63 0 0 1-2.34 1c.22-.48.64-.67.93-1l.89-.91a3.27 3.27 0 0 0-2.67-.88c.46-1 1.5-1 3.23-.2M21.47 19.83a3.57 3.57 0 0 0-2.21-.35.89.89 0 0 0-.78.55 4.61 4.61 0 0 0-.68 2.83c-.34.08-.45-.13-.56-.31a1.69 1.69 0 0 1-.24-1.24c.11-.53.27-1.05.43-1.62a18.93 18.93 0 0 0-2.93.51 7 7 0 0 0-2.74 1.32.86.86 0 0 1 .23-1 5.75 5.75 0 0 1 1.24-.84 11.46 11.46 0 0 1 3.74-1 2.54 2.54 0 0 0 2-1.08 7 7 0 0 1 2.22-2 3.25 3.25 0 0 1 1.71-.53.8.8 0 0 1 .74.33 12.88 12.88 0 0 0-1.58.64 7.72 7.72 0 0 0-1.36 1c-.41.37-.76.81-1.13 1.21.76.25 1.44.46 2.12.7ZM29.72 18.05 27 19.57c-.21-.12-.16-.33 0-.52a3.84 3.84 0 0 1 .58-.69c.47-.41 1-.79 1.48-1.21a4.79 4.79 0 0 0-2.18-1.23c-.44-.13-.91-.18-1.37-.26a4.79 4.79 0 0 1-.71-.14c-.13 0-.31-.19-.31-.3a.43.43 0 0 1 .28-.32 5 5 0 0 1 1.37-.15 5.57 5.57 0 0 1 3.33 1.58 3.33 3.33 0 0 1 .35.45c.45-.14.79-.29 1.14-.36a9.24 9.24 0 0 1 5.69.6 1.66 1.66 0 0 1 1 1c-.36.22-.65 0-1 0-.69-.15-1.36-.38-2.06-.47a10 10 0 0 0-3.8.16l-.3.1a7 7 0 0 1 .11.78 7.12 7.12 0 0 1-.07.83c-.51-.37-.51-.92-.89-1.36M37.79 45.24a1.7 1.7 0 0 1-.48-1.06c-.31-1.43-.82-4.79-1.57-6a15.75 15.75 0 0 0-1.06-1.54c-.91-1.18-3.13-2.76-4.61-2.81h-.7c-.16-.48-.1-.63.34-.8a3.82 3.82 0 0 1 2.29-.16 9.55 9.55 0 0 1 3.64 2.71c1.38 1.74 2.28 5.7 2.61 7.91a3.7 3.7 0 0 1 0 .9 1 1 0 0 1-.46.85M26.53 20.94a2 2 0 0 0-.17 1.66 3.93 3.93 0 0 0 3.09 3 14.66 14.66 0 0 0 3.85.38h1.05v.15a2.6 2.6 0 0 1-.48.3 3.61 3.61 0 0 1-.87.23 14.2 14.2 0 0 1-4.34-.22 4.22 4.22 0 0 1-3.31-4 2.39 2.39 0 0 1 .34-1.33c.21-.32.35-.35.8-.15M36.33 31.64a2 2 0 0 0-.86-1.43c-1.31-1-3.74-2.22-5.27-1.54a14.67 14.67 0 0 0-3.31 2c-.27.22-.57.41-.85.62l-.12-.1a2.59 2.59 0 0 1 .2-.53 3.59 3.59 0 0 1 .56-.71 14.2 14.2 0 0 1 3.61-2.43c1.74-.81 4.91.72 6.07 2.25a2.39 2.39 0 0 1 .52 1.23c0 .38-.07.49-.55.6"/><path d="M9.41 79.3a4.44 4.44 0 0 0 .6 2.16A3.87 3.87 0 0 0 13.53 83a6 6 0 0 0 2.06-.34 2.39 2.39 0 0 0 1.8-2.36 2.08 2.08 0 0 0-.76-1.82 7.49 7.49 0 0 0-2.42-.92l-2-.48a8.92 8.92 0 0 1-2.81-1A3.32 3.32 0 0 1 8 73.13a4.59 4.59 0 0 1 1.4-3.46 5.47 5.47 0 0 1 4-1.35 6.68 6.68 0 0 1 4 1.19A4.35 4.35 0 0 1 19 73.3h-2a4.07 4.07 0 0 0-.64-1.93 3.64 3.64 0 0 0-3.11-1.22 3.46 3.46 0 0 0-2.55.79 2.53 2.53 0 0 0-.77 1.83 1.8 1.8 0 0 0 .92 1.68 13 13 0 0 0 2.72.85l2.1.5a6.26 6.26 0 0 1 2.34 1 3.77 3.77 0 0 1 1.42 3.2 4 4 0 0 1-1.82 3.71 7.89 7.89 0 0 1-4.22 1.12A6.16 6.16 0 0 1 9 83.31a5.12 5.12 0 0 1-1.56-4ZM23.27 68.3h7.33a5.15 5.15 0 0 1 3.66 1.3 4.77 4.77 0 0 1 1.39 3.66 5.37 5.37 0 0 1-1.24 3.53 4.66 4.66 0 0 1-3.81 1.5h-5.33v7h-2Zm8.66 2.37a4.9 4.9 0 0 0-2.09-.37h-4.57v6h4.57a4.31 4.31 0 0 0 2.51-.67 2.69 2.69 0 0 0 1-2.37 2.62 2.62 0 0 0-1.39-2.59M38.27 68.3h2v7h9v-7h2v17h-2v-8h-9v8h-2v-17z" class="cls-1"/></g></g></svg>